<!-- icon666.com - MILLIONS vector ICONS FREE -->
<svg fill="none" viewBox="0 0 19 22" xmlns="http://www.w3.org/2000/svg" xmlns:xlink="http://www.w3.org/1999/xlink" width="0.19" height="0.22">
  <linearGradient id="paint0_linear_405_3729" gradientUnits="userSpaceOnUse" x1="9.272" x2="9.272" y1=".25" y2="21.14">
    <stop offset="0" stop-color="#fff200"></stop>
    <stop offset="1" stop-color="#fff200"></stop>
  </linearGradient>
  <path d="m9.91926 11.0134c-1.86812-3.23567-1.52284-6.12525-1.248-7.9787l.02861-.19135c.05752-.38311.1129-.75191.13165-1.05215.01113-.17814.01281-.37384-.01778-.56194-.03006-.18491-.1023-.43211-.29633-.641155-.44082-.474923-1.05987-.343078-1.39423-.236283-.39733.12691-.89389.378981-1.49639.726828-5.141641 2.96853-6.9033 9.54315-3.93477 14.68475 2.96853 5.1417 9.54308 6.9033 14.68478 3.9348.6025-.3479 1.0691-.6518 1.3776-.9325.2597-.2362.6834-.7064.4925-1.3256-.084-.2725-.262-.4587-.4071-.5772-.1476-.1205-.3179-.2169-.4777-.2964-.2694-.1338-.6164-.2703-.977-.412l-.1801-.0709c-1.7425-.6887-4.4176-1.8345-6.28574-5.0702z" fill="url(#paint0_linear_405_3729)"></path>
</svg>
