<!-- icon666.com - MILLIONS vector ICONS FREE --><svg fill="none" viewBox="0 0 24 24" xmlns="http://www.w3.org/2000/svg"><path d="m12.5 18c-3.03757 0-5.5-2.4624-5.5-5.5 0-3.03757 2.46243-5.5 5.5-5.5 3.0376 0 5.5 2.46243 5.5 5.5 0 3.0376-2.4624 5.5-5.5 5.5zm0-1c2.4853 0 4.5-2.0147 4.5-4.5s-2.0147-4.5-4.5-4.5-4.5 2.0147-4.5 4.5 2.0147 4.5 4.5 4.5zm.5-11.5c0 .27614-.2239.5-.5.5s-.5-.22386-.5-.5v-3c0-.27614.2239-.5.5-.5s.5.22386.5.5zm0 17c0 .2761-.2239.5-.5.5s-.5-.2239-.5-.5v-3c0-.2761.2239-.5.5-.5s.5.2239.5.5zm4.8033-14.59619c-.1953.19526-.5118.19526-.7071 0-.1953-.19527-.1953-.51185 0-.70711l2.0502-2.05025c.1953-.19527.5119-.19527.7072 0 .1952.19526.1952.51184 0 .7071zm-11.94975 11.94979c-.19526.1952-.51184.1952-.7071 0-.19527-.1953-.19527-.5119 0-.7072l2.05025-2.0502c.19526-.1953.51184-.1953.70711 0 .19526.1953.19526.5118 0 .7071zm13.64645-6.8536c-.2761 0-.5-.2239-.5-.5s.2239-.5.5-.5h3c.2761 0 .5.2239.5.5s-.2239.5-.5.5zm-17 0c-.27614 0-.5-.2239-.5-.5s.22386-.5.5-.5h3c.27614 0 .5.2239.5.5s-.22386.5-.5.5zm14.5962 4.8033c-.1953-.1953-.1953-.5118 0-.7071s.5118-.1953.7071 0l2.0503 2.0502c.1952.1953.1952.5119 0 .7072-.1953.1952-.5119.1952-.7072 0zm-11.94975-11.94975c-.19527-.19526-.19527-.51184 0-.7071.19526-.19527.51184-.19527.7071 0l2.05026 2.05025c.19526.19526.19526.51184 0 .70711-.19527.19526-.51185.19526-.70711 0z" fill="rgb(0,0,0)"></path></svg>